<svg width="289" height="47" viewBox="0 0 289 47" fill="none" xmlns="http://www.w3.org/2000/svg">
<path d="M228.22 37.0544L223.064 17.0469L217.959 37.0544C217.445 39.1941 215.507 40.7779 213.216 40.7779C210.925 40.7779 209.08 39.2447 208.524 37.2566L200.967 10.9225C200.917 10.6193 200.866 10.2065 200.866 9.85266C200.866 7.71292 202.551 6.02808 204.691 6.02808C206.477 6.02808 208.01 7.30013 208.414 8.98497L213.772 30.9805L219.644 8.63115C220.048 7.09795 221.43 6.02808 223.115 6.02808C224.799 6.02808 226.071 7.09795 226.484 8.63115L232.356 30.9805L237.663 8.98497C238.067 7.30013 239.601 6.02808 241.437 6.02808C243.577 6.02808 245.262 7.76346 245.262 9.85266C245.262 10.2065 245.211 10.6193 245.161 10.9731L237.655 37.2566C237.09 39.2447 235.203 40.7779 232.912 40.7779C230.62 40.7779 228.725 39.1941 228.22 37.0544Z" fill="url(#paint0_linear_43_4614)"/>
<path d="M249.861 37.1639V9.65048C249.861 7.66237 251.496 6.02808 253.534 6.02808C255.573 6.02808 257.106 7.66237 257.106 9.65048V37.1555C257.106 39.093 255.522 40.7779 253.534 40.7779C251.546 40.7779 249.861 39.093 249.861 37.1555V37.1639Z" fill="url(#paint1_linear_43_4614)"/>
<path d="M262.212 36.3972C262.212 35.479 262.515 34.6619 263.029 33.9964L278.698 12.7674H265.43C263.695 12.7674 262.212 11.3353 262.212 9.59988C262.212 7.86449 263.695 6.38184 265.43 6.38184H284.519C286.768 6.38184 288.554 8.16777 288.554 10.417C288.554 11.2847 288.251 12.1524 287.788 12.7674L272.119 34.0469H285.69C287.426 34.0469 288.908 35.479 288.908 37.2144C288.908 38.9498 287.426 40.4324 285.69 40.4324H266.247C264.057 40.4324 262.212 38.6465 262.212 36.3972Z" fill="url(#paint2_linear_43_4614)"/>
<path d="M41.6577 0.341797H4.47325C2.00274 0.341797 0 2.34454 0 4.81505V41.9995C0 44.47 2.00274 46.4727 4.47325 46.4727H41.6577C44.1282 46.4727 46.1309 44.47 46.1309 41.9995V4.81505C46.1309 2.34454 44.1282 0.341797 41.6577 0.341797Z" fill="#813488"/>
<path d="M41.6577 0.341797C44.1259 0.341797 46.1309 2.34676 46.1309 4.81505V19.9449C46.1309 21.4191 44.9347 22.6154 43.4604 22.6154H2.67047C1.19624 22.6154 0 21.4191 0 19.9449V4.81505C0 2.34676 2.00496 0.341797 4.47325 0.341797H41.6577Z" fill="url(#paint3_radial_43_4614)"/>
<path d="M4.47325 46.4728C2.00496 46.4728 0 44.4678 0 41.9995V26.8697C0 25.3955 1.19624 24.1992 2.67047 24.1992H43.4604C44.9347 24.1992 46.1309 25.3955 46.1309 26.8697V41.9995C46.1309 44.4678 44.1259 46.4728 41.6577 46.4728H4.47325Z" fill="url(#paint4_radial_43_4614)"/>
<path d="M41.7423 1.81592H4.38096C2.77583 1.81592 1.47461 3.11713 1.47461 4.72227V42.0836C1.47461 43.6887 2.77583 44.9899 4.38096 44.9899H41.7423C43.3474 44.9899 44.6486 43.6887 44.6486 42.0836V4.72227C44.6486 3.11713 43.3474 1.81592 41.7423 1.81592Z" fill="#813488"/>
<path d="M29.8637 35.2772L20.9087 37.8634C20.1506 38.0825 19.3587 37.6444 19.1397 36.8862L12.3582 13.408C12.1392 12.6498 12.5772 11.8579 13.3354 11.6389L22.602 8.96002C24.7418 8.34505 27.0753 8.96002 28.5495 10.628C31.3042 13.7197 30.6471 17.7296 28.1367 19.8862C31.3716 20.0715 34.2779 22.2618 35.2299 25.5473C36.4345 29.7172 34.0252 34.0725 29.8637 35.2772Z" fill="#4C205B"/>
<path d="M31.1614 18.7994C32.5346 16.1626 32.4503 12.7592 30.1926 9.87816C28.4573 7.67102 24.7843 6.53375 22.0886 7.30878L12.5692 10.0551C11.0529 10.4931 10.1767 12.0769 10.6148 13.5932L17.5563 37.6443C17.9944 39.1607 19.5782 40.0368 21.0945 39.5987L30.6644 36.8356C33.8656 35.9089 36.8562 32.455 37.21 29.1443C37.7491 24.1572 34.9523 20.282 31.153 18.7994H31.1614ZM29.8641 35.2771L20.9092 37.8633C20.151 38.0824 19.3591 37.6443 19.1401 36.8861L12.3586 13.4079C12.1396 12.6497 12.5776 11.8578 13.3358 11.6388L22.6193 8.95992C24.7506 8.34496 27.0673 8.95992 28.5415 10.6195C31.3046 13.7112 30.656 17.7295 28.1371 19.8861C31.372 20.0714 34.2784 22.2617 35.2303 25.5472C36.435 29.7171 34.0257 34.0725 29.8641 35.2771Z" fill="white"/>
<path d="M32.6527 29.018C32.6527 25.0417 29.4515 21.8153 25.4837 21.7731C27.8846 19.7008 28.5248 15.8762 25.9554 12.9025C24.5233 11.2429 22.2319 10.5942 20.1174 11.2092L12.3672 13.4416L19.1318 36.8777C19.3508 37.6359 20.1427 38.074 20.9009 37.8549L27.2612 36.0185C27.2612 36.0185 27.3201 36.0016 27.3538 35.9932C30.4118 35.1423 32.6527 32.3455 32.6527 29.018Z" fill="#8B2D88"/>
<path d="M32.6685 29.0346C32.6685 25.0584 29.4673 21.8235 25.4911 21.7898C27.892 19.7174 28.5322 15.8928 25.9629 12.9107C24.5223 11.2511 22.2309 10.6024 20.1249 11.209L12.3662 13.4498L19.1393 36.9112C19.3583 37.6694 20.1502 38.1075 20.9083 37.8884L27.277 36.0519C27.277 36.0519 27.336 36.0351 27.3697 36.0267C30.4277 35.1758 32.6685 32.3706 32.6685 29.043V29.0346Z" fill="url(#paint5_linear_43_4614)"/>
<path d="M32.5669 28.1416C32.5669 28.9335 31.9266 29.5737 31.1348 29.5737C31.9266 29.5737 32.5669 30.214 32.5669 31.0058C32.5669 30.214 33.2071 29.5737 33.999 29.5737C33.2071 29.5737 32.5669 28.9335 32.5669 28.1416Z" fill="white"/>
<path d="M23.3759 9.9873C23.3759 10.6107 22.8705 11.1161 22.2471 11.1161C22.8705 11.1161 23.3759 11.6216 23.3759 12.245C23.3759 11.6216 23.8814 11.1161 24.5048 11.1161C23.8814 11.1161 23.3759 10.6107 23.3759 9.9873Z" fill="white"/>
<path d="M23.3769 15.4127C23.6296 15.1684 24.0255 15.1684 24.2698 15.4211C24.5141 15.6738 24.5141 16.0697 24.2614 16.314C24.0087 16.5583 14.1103 26.7432 13.866 26.4905C13.6217 26.2377 23.1242 15.6485 23.3685 15.4042L23.3769 15.4127Z" fill="url(#paint6_linear_43_4614)"/>
<path d="M22.0626 19.9363C22.189 19.81 22.3996 19.81 22.526 19.9363C22.6523 20.0627 22.6523 20.2733 22.526 20.3997C22.3996 20.526 17.3114 25.7574 17.185 25.6311C17.0587 25.5047 21.9447 20.0627 22.0711 19.9363H22.0626Z" fill="url(#paint7_linear_43_4614)"/>
<path d="M20.7828 31.3176H20.269L20.0078 31.7641L20.269 32.2106H20.7828L21.0356 31.7641L20.7828 31.3176Z" stroke="white" stroke-width="0.16006" stroke-miterlimit="10"/>
<path d="M26.5784 15.9181C26.5025 15.817 26.5194 15.6738 26.6205 15.5979L27.8757 14.6123C27.9768 14.5365 28.12 14.5533 28.1958 14.6544C28.2716 14.7555 28.2548 14.8987 28.1537 14.9745L26.8985 15.9602C26.7974 16.036 26.6542 16.0191 26.5784 15.9181Z" fill="white"/>
<path d="M26.9327 14.9998C27.0815 14.9998 27.2022 14.8791 27.2022 14.7303C27.2022 14.5814 27.0815 14.4607 26.9327 14.4607C26.7838 14.4607 26.6631 14.5814 26.6631 14.7303C26.6631 14.8791 26.7838 14.9998 26.9327 14.9998Z" fill="white"/>
<path d="M27.8164 16.1287C27.9653 16.1287 28.086 16.0081 28.086 15.8592C28.086 15.7103 27.9653 15.5896 27.8164 15.5896C27.6676 15.5896 27.5469 15.7103 27.5469 15.8592C27.5469 16.0081 27.6676 16.1287 27.8164 16.1287Z" fill="white"/>
<path d="M25.7193 27.3497C25.8036 27.4592 25.7783 27.6108 25.6772 27.6867C25.5761 27.7625 25.416 27.7456 25.3402 27.6445L24.9696 27.1644L24.5568 27.4845C24.4641 27.5603 24.3209 27.535 24.2535 27.4424C24.1861 27.3497 24.1945 27.2149 24.2956 27.1391L24.7084 26.819L24.3546 26.3641C24.2704 26.2546 24.2956 26.1029 24.3967 26.0271C24.4978 25.9513 24.6579 25.9681 24.7337 26.0692L25.0875 26.5241L25.5003 26.204C25.593 26.1282 25.7362 26.1535 25.8036 26.2461C25.871 26.3388 25.8625 26.482 25.7699 26.5578L25.3571 26.8779L25.7277 27.3581L25.7193 27.3497Z" fill="#EBECEC"/>
<path d="M25.1796 34.2577C25.1796 34.2577 25.1459 34.283 25.129 34.2998C25.0869 34.3504 25.0195 34.3841 24.9437 34.3756L24.6909 34.3504C24.6909 34.3504 24.632 34.3335 24.6151 34.2998C24.5983 34.2661 24.5646 34.2409 24.5225 34.224C24.4466 34.1903 24.354 34.1987 24.295 34.2577C24.2023 34.3504 24.2108 34.4936 24.3119 34.5694C24.354 34.6031 24.4129 34.6115 24.4719 34.6031C24.5309 34.5947 24.5646 34.5694 24.5899 34.5357C24.6067 34.5104 24.6404 34.502 24.6741 34.502L24.9184 34.5273C24.9858 34.5273 25.0532 34.5694 25.0869 34.6368C25.1122 34.6873 25.1543 34.721 25.2132 34.7547C25.3228 34.8053 25.4576 34.7884 25.5418 34.7042C25.685 34.5694 25.6597 34.3335 25.4912 34.2409C25.3902 34.1819 25.2638 34.1903 25.1796 34.2577Z" fill="white"/>
<path d="M24.2948 34.3081C24.2948 34.3081 24.3116 34.2913 24.3201 34.2829C24.3706 34.2323 24.4548 34.2155 24.5222 34.2492C24.5559 34.266 24.5812 34.2913 24.5981 34.3165C24.6149 34.3502 24.6486 34.3671 24.6907 34.3755L24.9434 34.4008C25.0193 34.4008 25.0951 34.3755 25.1456 34.3165C25.1625 34.2997 25.1709 34.2913 25.1877 34.2744C25.272 34.2155 25.3899 34.207 25.4826 34.2576C25.55 34.2997 25.6005 34.3587 25.609 34.4345C25.6258 34.5103 25.609 34.5861 25.5584 34.6535C25.55 34.6704 25.5416 34.6788 25.5247 34.6872C25.4489 34.763 25.3225 34.7799 25.2214 34.7293C25.1709 34.7041 25.1372 34.6704 25.1035 34.6198C25.0614 34.5524 24.994 34.5103 24.9182 34.5019L24.6739 34.4766C24.6739 34.4766 24.5981 34.485 24.5728 34.5187C24.5475 34.5524 24.5138 34.5693 24.4633 34.5777C24.4127 34.5861 24.3622 34.5777 24.3201 34.5524C24.2358 34.4935 24.219 34.3755 24.2864 34.2997M24.2695 34.2829C24.2021 34.3755 24.219 34.5019 24.3116 34.5693C24.3538 34.603 24.4127 34.6114 24.4717 34.603C24.5307 34.5945 24.5644 34.5693 24.5896 34.5356C24.6065 34.5103 24.6402 34.5019 24.6739 34.5019L24.9182 34.5272C24.9856 34.5272 25.053 34.5693 25.0867 34.6367C25.1119 34.6872 25.154 34.7209 25.213 34.7546C25.3225 34.8052 25.4573 34.7883 25.5416 34.7041C25.5584 34.6956 25.5668 34.6788 25.5753 34.6619C25.6763 34.5272 25.6427 34.325 25.4826 34.2323C25.3815 34.1733 25.2551 34.1818 25.1709 34.2492C25.154 34.266 25.1372 34.2744 25.1204 34.2913C25.0782 34.3418 25.0108 34.3755 24.935 34.3671L24.6823 34.3418C24.6823 34.3418 24.6233 34.325 24.6065 34.2913C24.5896 34.2576 24.5559 34.2323 24.5138 34.2155C24.438 34.1818 24.3453 34.1902 24.2864 34.2492C24.2779 34.2576 24.2695 34.266 24.2611 34.2744L24.2695 34.2829Z" fill="white"/>
<path d="M25.3477 34.7716C25.4966 34.7716 25.6173 34.6509 25.6173 34.502C25.6173 34.3531 25.4966 34.2324 25.3477 34.2324C25.1988 34.2324 25.0781 34.3531 25.0781 34.502C25.0781 34.6509 25.1988 34.7716 25.3477 34.7716Z" fill="white"/>
<path d="M24.4302 34.5862C24.5233 34.5862 24.5987 34.5108 24.5987 34.4178C24.5987 34.3247 24.5233 34.2493 24.4302 34.2493C24.3372 34.2493 24.2617 34.3247 24.2617 34.4178C24.2617 34.5108 24.3372 34.5862 24.4302 34.5862Z" fill="white"/>
<path d="M20.5296 14.9239C20.6878 14.9239 20.816 14.7957 20.816 14.6375C20.816 14.4793 20.6878 14.3511 20.5296 14.3511C20.3714 14.3511 20.2432 14.4793 20.2432 14.6375C20.2432 14.7957 20.3714 14.9239 20.5296 14.9239Z" fill="white"/>
<path d="M16.309 14.7808C16.5786 14.865 16.8566 14.705 16.9324 14.4354C16.9998 14.1742 16.8482 13.9047 16.587 13.8288C16.4691 13.7952 16.3512 13.8036 16.2501 13.8541C16.1153 13.9131 15.9552 13.9215 15.8204 13.8541C15.7109 13.7952 15.6351 13.7109 15.5761 13.6014C15.534 13.5172 15.4582 13.4498 15.3571 13.4329C15.197 13.3992 15.0286 13.4919 14.9864 13.6519C14.9359 13.8204 15.0286 14.0058 15.197 14.0563C15.2476 14.0732 15.3065 14.0732 15.3571 14.0563C15.475 14.031 15.593 14.0395 15.7025 14.09C15.8373 14.1574 15.9468 14.2753 15.9805 14.4185C16.0226 14.587 16.1405 14.7302 16.3175 14.7808H16.309Z" fill="white"/>
<path d="M15.3658 13.475C15.4416 13.5003 15.5006 13.5508 15.5343 13.6182C15.5932 13.7446 15.6859 13.8372 15.7954 13.8878C15.7954 13.8878 15.8459 13.913 15.8712 13.9215C15.9976 13.9636 16.1324 13.9467 16.2587 13.8962C16.3598 13.8541 16.4693 13.8456 16.5704 13.8709C16.8063 13.9467 16.9411 14.191 16.8821 14.4269C16.8484 14.5449 16.7726 14.6459 16.6631 14.7049C16.5536 14.7639 16.4272 14.7807 16.3093 14.747C16.1492 14.6965 16.0313 14.5701 15.9976 14.4101C15.9639 14.2584 15.8544 14.1321 15.7027 14.0563C15.6775 14.0478 15.6522 14.0394 15.6269 14.031C15.5343 14.0057 15.4332 13.9973 15.3321 14.031C15.2815 14.0394 15.2394 14.031 15.1889 14.031C15.113 14.0057 15.0541 13.9552 15.0204 13.8878C14.9867 13.8204 14.9783 13.7446 15.0035 13.6687C15.0456 13.534 15.1973 13.4497 15.3321 13.475C15.3321 13.475 15.3489 13.475 15.3573 13.475M15.3658 13.4413C15.3658 13.4413 15.3489 13.4413 15.3405 13.4413C15.1804 13.4076 15.012 13.5003 14.9698 13.6603C14.9193 13.8288 15.012 14.0141 15.1804 14.0647C15.231 14.0815 15.2899 14.0815 15.3405 14.0647C15.4332 14.0478 15.5343 14.0478 15.6185 14.0647C15.6438 14.0647 15.6606 14.0815 15.6859 14.0899C15.8207 14.1573 15.9302 14.2753 15.9639 14.4185C16.006 14.587 16.1239 14.7302 16.3009 14.7807C16.5704 14.865 16.8484 14.7049 16.9242 14.4353C16.9916 14.1826 16.84 13.9046 16.5873 13.8288C16.4693 13.7951 16.3514 13.8035 16.2503 13.8541C16.1324 13.9046 16.006 13.913 15.8881 13.8793C15.8628 13.8793 15.8375 13.8625 15.8207 13.8541C15.7112 13.7951 15.6353 13.7109 15.5764 13.6013C15.5427 13.5255 15.4669 13.4666 15.3826 13.4329L15.3658 13.4413Z" fill="white"/>
<path d="M16.4604 14.7807C16.7163 14.7807 16.9237 14.5732 16.9237 14.3173C16.9237 14.0614 16.7163 13.854 16.4604 13.854C16.2045 13.854 15.9971 14.0614 15.9971 14.3173C15.9971 14.5732 16.2045 14.7807 16.4604 14.7807Z" fill="white"/>
<path d="M15.2806 14.0309C15.4388 14.0309 15.567 13.9026 15.567 13.7444C15.567 13.5862 15.4388 13.458 15.2806 13.458C15.1224 13.458 14.9941 13.5862 14.9941 13.7444C14.9941 13.9026 15.1224 14.0309 15.2806 14.0309Z" fill="white"/>
<g style="mix-blend-mode:overlay" opacity="0.56">
<mask id="mask0_43_4614" style="mask-type:luminance" maskUnits="userSpaceOnUse" x="12" y="10" width="21" height="28">
<path d="M32.6695 29.0346C32.6695 25.0584 29.4683 21.8235 25.4921 21.7898C27.893 19.7174 28.5332 15.8928 25.9638 12.9107C24.5233 11.2511 22.2319 10.6024 20.1259 11.209L12.3672 13.4498L19.1402 36.9112C19.3593 37.6694 20.1511 38.1075 20.9093 37.8884L27.278 36.0519C27.278 36.0519 27.337 36.0351 27.3707 36.0267C30.4287 35.1758 32.6695 32.3706 32.6695 29.043V29.0346Z" fill="white"/>
</mask>
<g mask="url(#mask0_43_4614)">
<g style="mix-blend-mode:overlay" opacity="0.66">
<path d="M27.7213 38.8618C31.1045 32.9877 31.0626 26.622 27.6276 24.6436C24.1926 22.6652 18.6654 25.8233 15.2821 31.6974C11.8989 37.5716 11.9409 43.9373 15.3758 45.9157C18.8108 47.8941 24.3381 44.736 27.7213 38.8618Z" stroke="white" stroke-width="0.311695" stroke-miterlimit="10"/>
<path d="M26.2474 38.0125C28.8295 33.5293 28.7983 28.6714 26.1777 27.1621C23.5571 25.6527 19.3395 28.0635 16.7574 32.5467C14.1753 37.0299 14.2064 41.8879 16.827 43.3972C19.4476 44.9065 23.6652 42.4957 26.2474 38.0125Z" stroke="white" stroke-width="0.311695" stroke-miterlimit="10"/>
<path d="M25.1224 37.365C27.0915 33.9461 27.0667 30.2409 25.067 29.0892C23.0673 27.9374 19.8499 29.7753 17.8808 33.1941C15.9117 36.613 15.9365 40.3182 17.9362 41.4699C19.9359 42.6217 23.1533 40.7838 25.1224 37.365Z" stroke="white" stroke-width="0.311695" stroke-miterlimit="10"/>
<path d="M23.9543 36.6921C25.2918 34.3699 25.2779 31.8549 23.9233 31.0747C22.5686 30.2944 20.3862 31.5445 19.0487 33.8667C17.7112 36.189 17.7251 38.704 19.0797 39.4842C20.4344 40.2644 22.6168 39.0144 23.9543 36.6921Z" stroke="white" stroke-width="0.311695" stroke-miterlimit="10"/>
<path d="M22.9467 36.1121C23.7315 34.7494 23.7206 33.272 22.9224 32.8122C22.1241 32.3525 20.8407 33.0845 20.0559 34.4472C19.271 35.8099 19.2819 37.2873 20.0802 37.747C20.8784 38.2068 22.1618 37.4748 22.9467 36.1121Z" stroke="white" stroke-width="0.311695" stroke-miterlimit="10"/>
<path d="M22.2754 35.7251C22.6957 34.9953 22.69 34.2042 22.2626 33.9581C21.8353 33.712 21.1481 34.104 20.7278 34.8337C20.3075 35.5635 20.3132 36.3546 20.7406 36.6007C21.168 36.8468 21.8551 36.4548 22.2754 35.7251Z" stroke="white" stroke-width="0.311695" stroke-miterlimit="10"/>
</g>
</g>
</g>
<mask id="mask1_43_4614" style="mask-type:luminance" maskUnits="userSpaceOnUse" x="12" y="10" width="21" height="28">
<path d="M32.6695 29.0346C32.6695 25.0584 29.4683 21.8235 25.4921 21.7898C27.893 19.7174 28.5332 15.8928 25.9638 12.9107C24.5233 11.2511 22.2319 10.6024 20.1259 11.209L12.3672 13.4498L19.1402 36.9112C19.3593 37.6694 20.1511 38.1075 20.9093 37.8884L27.278 36.0519C27.278 36.0519 27.337 36.0351 27.3707 36.0267C30.4287 35.1758 32.6695 32.3706 32.6695 29.043V29.0346Z" fill="white"/>
</mask>
<g mask="url(#mask1_43_4614)">
<path d="M17.8009 15.9856C17.8614 15.9856 17.9104 15.9366 17.9104 15.8761C17.9104 15.8156 17.8614 15.7666 17.8009 15.7666C17.7404 15.7666 17.6914 15.8156 17.6914 15.8761C17.6914 15.9366 17.7404 15.9856 17.8009 15.9856Z" fill="white"/>
<path d="M16.0313 21.284C16.0777 21.284 16.1153 21.2464 16.1153 21.2C16.1153 21.1536 16.0777 21.116 16.0313 21.116C15.9849 21.116 15.9473 21.1536 15.9473 21.2C15.9473 21.2464 15.9849 21.284 16.0313 21.284Z" fill="white"/>
<path d="M17.0928 23.5418C17.1392 23.5418 17.1768 23.5042 17.1768 23.4578C17.1768 23.4114 17.1392 23.3738 17.0928 23.3738C17.0464 23.3738 17.0088 23.4114 17.0088 23.4578C17.0088 23.5042 17.0464 23.5418 17.0928 23.5418Z" fill="white"/>
<path d="M18.7354 19.4896C18.7818 19.4896 18.8194 19.4519 18.8194 19.4055C18.8194 19.3591 18.7818 19.3215 18.7354 19.3215C18.689 19.3215 18.6514 19.3591 18.6514 19.4055C18.6514 19.4519 18.689 19.4896 18.7354 19.4896Z" fill="white"/>
<path d="M15.5176 13.9044C15.564 13.9044 15.6016 13.8667 15.6016 13.8203C15.6016 13.7739 15.564 13.7363 15.5176 13.7363C15.4712 13.7363 15.4336 13.7739 15.4336 13.8203C15.4336 13.8667 15.4712 13.9044 15.5176 13.9044Z" fill="white"/>
<path d="M23.7823 11.8069C23.8287 11.8069 23.8663 11.7693 23.8663 11.7229C23.8663 11.6765 23.8287 11.6389 23.7823 11.6389C23.7359 11.6389 23.6982 11.6765 23.6982 11.7229C23.6982 11.7693 23.7359 11.8069 23.7823 11.8069Z" fill="white"/>
<path d="M22.0127 23.7608C22.0591 23.7608 22.0967 23.7232 22.0967 23.6768C22.0967 23.6304 22.0591 23.5928 22.0127 23.5928C21.9663 23.5928 21.9287 23.6304 21.9287 23.6768C21.9287 23.7232 21.9663 23.7608 22.0127 23.7608Z" fill="white"/>
<path d="M24.4053 18.2681C24.4517 18.2681 24.4893 18.2305 24.4893 18.1841C24.4893 18.1377 24.4517 18.1001 24.4053 18.1001C24.3589 18.1001 24.3213 18.1377 24.3213 18.1841C24.3213 18.2305 24.3589 18.2681 24.4053 18.2681Z" fill="white"/>
<path d="M24.2276 32.2862C24.274 32.2862 24.3116 32.2486 24.3116 32.2022C24.3116 32.1558 24.274 32.1182 24.2276 32.1182C24.1812 32.1182 24.1436 32.1558 24.1436 32.2022C24.1436 32.2486 24.1812 32.2862 24.2276 32.2862Z" fill="white"/>
<path d="M14.3047 30.6263C14.3511 30.6263 14.3887 30.5887 14.3887 30.5423C14.3887 30.4959 14.3511 30.4583 14.3047 30.4583C14.2583 30.4583 14.2207 30.4959 14.2207 30.5423C14.2207 30.5887 14.2583 30.6263 14.3047 30.6263Z" fill="white"/>
<path d="M14.3047 25.1341C14.3511 25.1341 14.3887 25.0965 14.3887 25.0501C14.3887 25.0037 14.3511 24.9661 14.3047 24.9661C14.2583 24.9661 14.2207 25.0037 14.2207 25.0501C14.2207 25.0965 14.2583 25.1341 14.3047 25.1341Z" fill="white"/>
<path d="M19.9151 23.2466C19.9615 23.2466 19.9991 23.209 19.9991 23.1626C19.9991 23.1162 19.9615 23.0786 19.9151 23.0786C19.8687 23.0786 19.8311 23.1162 19.8311 23.1626C19.8311 23.209 19.8687 23.2466 19.9151 23.2466Z" fill="white"/>
<path d="M12.4004 29.6492C12.4468 29.6492 12.4844 29.6116 12.4844 29.5652C12.4844 29.5188 12.4468 29.4812 12.4004 29.4812C12.354 29.4812 12.3164 29.5188 12.3164 29.5652C12.3164 29.6116 12.354 29.6492 12.4004 29.6492Z" fill="white"/>
<path d="M23.8831 22.5987C23.9668 22.5987 24.0347 22.5308 24.0347 22.447C24.0347 22.3633 23.9668 22.2954 23.8831 22.2954C23.7993 22.2954 23.7314 22.3633 23.7314 22.447C23.7314 22.5308 23.7993 22.5987 23.8831 22.5987Z" fill="white"/>
<path d="M15.1728 18.3948C15.2612 18.3948 15.3328 18.3232 15.3328 18.2348C15.3328 18.1464 15.2612 18.0747 15.1728 18.0747C15.0844 18.0747 15.0127 18.1464 15.0127 18.2348C15.0127 18.3232 15.0844 18.3948 15.1728 18.3948Z" fill="white"/>
<path d="M21.2462 17.3926C21.3067 17.3926 21.3557 17.3436 21.3557 17.2831C21.3557 17.2226 21.3067 17.1736 21.2462 17.1736C21.1857 17.1736 21.1367 17.2226 21.1367 17.2831C21.1367 17.3436 21.1857 17.3926 21.2462 17.3926Z" fill="white"/>
<path d="M21.1955 30.5764C21.2559 30.5764 21.305 30.5274 21.305 30.4669C21.305 30.4065 21.2559 30.3574 21.1955 30.3574C21.135 30.3574 21.0859 30.4065 21.0859 30.4669C21.0859 30.5274 21.135 30.5764 21.1955 30.5764Z" fill="white"/>
<path d="M21.4572 20.6695C21.5177 20.6695 21.5667 20.6204 21.5667 20.56C21.5667 20.4995 21.5177 20.4504 21.4572 20.4504C21.3967 20.4504 21.3477 20.4995 21.3477 20.56C21.3477 20.6204 21.3967 20.6695 21.4572 20.6695Z" fill="white"/>
<path d="M22.9064 26.4737C22.9669 26.4737 23.0159 26.4246 23.0159 26.3642C23.0159 26.3037 22.9669 26.2546 22.9064 26.2546C22.8459 26.2546 22.7969 26.3037 22.7969 26.3642C22.7969 26.4246 22.8459 26.4737 22.9064 26.4737Z" fill="white"/>
<path d="M17.9191 26.2127C17.9796 26.2127 18.0286 26.1636 18.0286 26.1032C18.0286 26.0427 17.9796 25.9937 17.9191 25.9937C17.8586 25.9937 17.8096 26.0427 17.8096 26.1032C17.8096 26.1636 17.8586 26.2127 17.9191 26.2127Z" fill="white"/>
<path d="M17.4982 31.781C17.5587 31.781 17.6077 31.732 17.6077 31.6715C17.6077 31.611 17.5587 31.562 17.4982 31.562C17.4377 31.562 17.3887 31.611 17.3887 31.6715C17.3887 31.732 17.4377 31.781 17.4982 31.781Z" fill="white"/>
<path d="M14.6164 15.6656C14.6768 15.6656 14.7259 15.6165 14.7259 15.556C14.7259 15.4956 14.6768 15.4465 14.6164 15.4465C14.5559 15.4465 14.5068 15.4956 14.5068 15.556C14.5068 15.6165 14.5559 15.6656 14.6164 15.6656Z" fill="white"/>
<path d="M18.0782 33.5665C18.1246 33.5665 18.1622 33.5288 18.1622 33.4825C18.1622 33.4361 18.1246 33.3984 18.0782 33.3984C18.0318 33.3984 17.9941 33.4361 17.9941 33.4825C17.9941 33.5288 18.0318 33.5665 18.0782 33.5665Z" fill="white"/>
<path d="M15.2901 35.1588C15.3365 35.1588 15.3741 35.1211 15.3741 35.0747C15.3741 35.0283 15.3365 34.9907 15.2901 34.9907C15.2437 34.9907 15.2061 35.0283 15.2061 35.0747C15.2061 35.1211 15.2437 35.1588 15.2901 35.1588Z" fill="white"/>
<path d="M17.6407 37.4669C17.6871 37.4669 17.7247 37.4292 17.7247 37.3828C17.7247 37.3364 17.6871 37.2988 17.6407 37.2988C17.5943 37.2988 17.5566 37.3364 17.5566 37.3828C17.5566 37.4292 17.5943 37.4669 17.6407 37.4669Z" fill="white"/>
<path d="M18.9044 36.2373C18.9649 36.2373 19.014 36.1883 19.014 36.1278C19.014 36.0673 18.9649 36.0183 18.9044 36.0183C18.844 36.0183 18.7949 36.0673 18.7949 36.1278C18.7949 36.1883 18.844 36.2373 18.9044 36.2373Z" fill="white"/>
<path d="M17.464 36.4058C17.5245 36.4058 17.5735 36.3568 17.5735 36.2963C17.5735 36.2358 17.5245 36.1868 17.464 36.1868C17.4035 36.1868 17.3545 36.2358 17.3545 36.2963C17.3545 36.3568 17.4035 36.4058 17.464 36.4058Z" fill="white"/>
<path d="M28.8116 33.1705C28.858 33.1705 28.8956 33.1329 28.8956 33.0865C28.8956 33.0401 28.858 33.0024 28.8116 33.0024C28.7652 33.0024 28.7275 33.0401 28.7275 33.0865C28.7275 33.1329 28.7652 33.1705 28.8116 33.1705Z" fill="white"/>
<path d="M25.416 34.586C25.4624 34.586 25.5001 34.5484 25.5001 34.502C25.5001 34.4556 25.4624 34.418 25.416 34.418C25.3696 34.418 25.332 34.4556 25.332 34.502C25.332 34.5484 25.3696 34.586 25.416 34.586Z" fill="white"/>
<path d="M27.4385 37.0626C27.4849 37.0626 27.5225 37.0249 27.5225 36.9785C27.5225 36.9321 27.4849 36.8945 27.4385 36.8945C27.3921 36.8945 27.3545 36.9321 27.3545 36.9785C27.3545 37.0249 27.3921 37.0626 27.4385 37.0626Z" fill="white"/>
<path d="M20.294 36.9195C20.3404 36.9195 20.378 36.8819 20.378 36.8355C20.378 36.7891 20.3404 36.7515 20.294 36.7515C20.2476 36.7515 20.21 36.7891 20.21 36.8355C20.21 36.8819 20.2476 36.9195 20.294 36.9195Z" fill="white"/>
<path d="M31.0353 33.5081C31.0958 33.5081 31.1448 33.4591 31.1448 33.3986C31.1448 33.3381 31.0958 33.2891 31.0353 33.2891C30.9748 33.2891 30.9258 33.3381 30.9258 33.3986C30.9258 33.4591 30.9748 33.5081 31.0353 33.5081Z" fill="white"/>
<path d="M26.798 35.5381C26.8585 35.5381 26.9075 35.4891 26.9075 35.4286C26.9075 35.3681 26.8585 35.3191 26.798 35.3191C26.7375 35.3191 26.6885 35.3681 26.6885 35.4286C26.6885 35.4891 26.7375 35.5381 26.798 35.5381Z" fill="white"/>
<path d="M21.5158 34.7884C21.5762 34.7884 21.6253 34.7393 21.6253 34.6788C21.6253 34.6184 21.5762 34.5693 21.5158 34.5693C21.4553 34.5693 21.4062 34.6184 21.4062 34.6788C21.4062 34.7393 21.4553 34.7884 21.5158 34.7884Z" fill="white"/>
<path d="M27.4385 30.7022C27.4849 30.7022 27.5225 30.6646 27.5225 30.6182C27.5225 30.5718 27.4849 30.5342 27.4385 30.5342C27.3921 30.5342 27.3545 30.5718 27.3545 30.6182C27.3545 30.6646 27.3921 30.7022 27.4385 30.7022Z" fill="white"/>
<path d="M31.7422 23.407C31.7886 23.407 31.8262 23.3694 31.8262 23.323C31.8262 23.2766 31.7886 23.239 31.7422 23.239C31.6958 23.239 31.6582 23.2766 31.6582 23.323C31.6582 23.3694 31.6958 23.407 31.7422 23.407Z" fill="white"/>
<path d="M31.2793 29.346C31.3257 29.346 31.3633 29.3084 31.3633 29.262C31.3633 29.2156 31.3257 29.178 31.2793 29.178C31.2329 29.178 31.1953 29.2156 31.1953 29.262C31.1953 29.3084 31.2329 29.346 31.2793 29.346Z" fill="white"/>
<path d="M28.2051 26.8524C28.2515 26.8524 28.2891 26.8147 28.2891 26.7683C28.2891 26.7219 28.2515 26.6843 28.2051 26.6843C28.1587 26.6843 28.1211 26.7219 28.1211 26.7683C28.1211 26.8147 28.1587 26.8524 28.2051 26.8524Z" fill="white"/>
<path d="M32.628 25.0074C32.6744 25.0074 32.712 24.9698 32.712 24.9234C32.712 24.877 32.6744 24.8394 32.628 24.8394C32.5816 24.8394 32.5439 24.877 32.5439 24.9234C32.5439 24.9698 32.5816 25.0074 32.628 25.0074Z" fill="white"/>
<path d="M26.8322 28.0237C26.8927 28.0237 26.9417 27.9747 26.9417 27.9142C26.9417 27.8537 26.8927 27.8047 26.8322 27.8047C26.7717 27.8047 26.7227 27.8537 26.7227 27.9142C26.7227 27.9747 26.7717 28.0237 26.8322 28.0237Z" fill="white"/>
<path d="M27.7326 22.5059C27.793 22.5059 27.8421 22.4569 27.8421 22.3964C27.8421 22.3359 27.793 22.2869 27.7326 22.2869C27.6721 22.2869 27.623 22.3359 27.623 22.3964C27.623 22.4569 27.6721 22.5059 27.7326 22.5059Z" fill="white"/>
<path d="M28.2892 27.9732C28.3497 27.9732 28.3987 27.9241 28.3987 27.8637C28.3987 27.8032 28.3497 27.7542 28.2892 27.7542C28.2287 27.7542 28.1797 27.8032 28.1797 27.8637C28.1797 27.9241 28.2287 27.9732 28.2892 27.9732Z" fill="white"/>
<path d="M25.416 15.5809C25.4624 15.5809 25.5001 15.5433 25.5001 15.4969C25.5001 15.4505 25.4624 15.4128 25.416 15.4128C25.3696 15.4128 25.332 15.4505 25.332 15.4969C25.332 15.5433 25.3696 15.5809 25.416 15.5809Z" fill="white"/>
<path d="M29.2578 14.233C29.3042 14.233 29.3419 14.1954 29.3419 14.149C29.3419 14.1026 29.3042 14.0649 29.2578 14.0649C29.2114 14.0649 29.1738 14.1026 29.1738 14.149C29.1738 14.1954 29.2114 14.233 29.2578 14.233Z" fill="white"/>
<path d="M27.1182 11.7393C27.1646 11.7393 27.2022 11.7017 27.2022 11.6553C27.2022 11.6089 27.1646 11.5713 27.1182 11.5713C27.0718 11.5713 27.0342 11.6089 27.0342 11.6553C27.0342 11.7017 27.0718 11.7393 27.1182 11.7393Z" fill="white"/>
<path d="M28.6846 18.3355C28.731 18.3355 28.7686 18.2979 28.7686 18.2515C28.7686 18.2051 28.731 18.1675 28.6846 18.1675C28.6382 18.1675 28.6006 18.2051 28.6006 18.2515C28.6006 18.2979 28.6382 18.3355 28.6846 18.3355Z" fill="white"/>
<path d="M30.6729 22.1856C30.7193 22.1856 30.7569 22.148 30.7569 22.1016C30.7569 22.0552 30.7193 22.0176 30.6729 22.0176C30.6265 22.0176 30.5889 22.0552 30.5889 22.1016C30.5889 22.148 30.6265 22.1856 30.6729 22.1856Z" fill="white"/>
<path d="M29.8557 18.9678C29.9395 18.9678 30.0074 18.8999 30.0074 18.8162C30.0074 18.7324 29.9395 18.6646 29.8557 18.6646C29.772 18.6646 29.7041 18.7324 29.7041 18.8162C29.7041 18.8999 29.772 18.9678 29.8557 18.9678Z" fill="white"/>
<path d="M31.0607 17.7295C31.1212 17.7295 31.1702 17.6805 31.1702 17.62C31.1702 17.5595 31.1212 17.5105 31.0607 17.5105C31.0002 17.5105 30.9512 17.5595 30.9512 17.62C30.9512 17.6805 31.0002 17.7295 31.0607 17.7295Z" fill="white"/>
<path d="M25.7453 12.9024C25.8057 12.9024 25.8548 12.8533 25.8548 12.7929C25.8548 12.7324 25.8057 12.6833 25.7453 12.6833C25.6848 12.6833 25.6357 12.7324 25.6357 12.7929C25.6357 12.8533 25.6848 12.9024 25.7453 12.9024Z" fill="white"/>
<path d="M27.2023 12.8604C27.2628 12.8604 27.3118 12.8114 27.3118 12.7509C27.3118 12.6904 27.2628 12.6414 27.2023 12.6414C27.1418 12.6414 27.0928 12.6904 27.0928 12.7509C27.0928 12.8114 27.1418 12.8604 27.2023 12.8604Z" fill="white"/>
<path d="M29.9318 24.3929C29.9923 24.3929 30.0413 24.3438 30.0413 24.2833C30.0413 24.2229 29.9923 24.1738 29.9318 24.1738C29.8713 24.1738 29.8223 24.2229 29.8223 24.2833C29.8223 24.3438 29.8713 24.3929 29.9318 24.3929Z" fill="white"/>
<path d="M22.922 14.7137C22.9825 14.7137 23.0315 14.6646 23.0315 14.6041C23.0315 14.5437 22.9825 14.4946 22.922 14.4946C22.8615 14.4946 22.8125 14.5437 22.8125 14.6041C22.8125 14.6646 22.8615 14.7137 22.922 14.7137Z" fill="white"/>
<path d="M19.2247 12.6497C19.2852 12.6497 19.3343 12.6007 19.3343 12.5402C19.3343 12.4797 19.2852 12.4307 19.2247 12.4307C19.1643 12.4307 19.1152 12.4797 19.1152 12.5402C19.1152 12.6007 19.1643 12.6497 19.2247 12.6497Z" fill="white"/>
</g>
<path d="M146.395 40.1377C138.62 40.1377 134.104 35.4539 134.104 26.1283V10.3414C134.104 8.04156 135.385 6.66841 137.289 6.66841C139.193 6.66841 140.473 8.04156 140.473 10.3414V25.6397C140.473 31.9157 142.503 33.9038 146.395 33.9038C150.287 33.9038 152.317 31.9157 152.317 25.6397V10.3414C152.317 8.04156 153.64 6.66841 155.502 6.66841C157.364 6.66841 158.686 8.04156 158.686 10.3414V26.1199C158.686 35.4455 154.179 40.1293 146.395 40.1293V40.1377ZM74.9497 22.4554C77.6033 20.7284 78.968 18.3443 78.968 15.5559C78.968 10.0718 75.1266 6.18823 67.3426 6.18823H58.5056C56.6018 6.18823 55.3213 7.42659 55.3213 9.33046V37.1809C55.3213 39.0342 56.6018 40.3231 58.5056 40.3231L67.3005 40.4073C77.3758 40.4916 80.695 36.1615 80.695 30.8627C80.695 27.0634 78.53 24.056 74.9497 22.5986C74.9497 22.5986 74.9075 22.5817 74.9075 22.5396C74.9075 22.4891 74.9497 22.4638 74.9497 22.4638V22.4554ZM96.1365 20.4251L89.0181 8.5807C88.3104 7.43501 87.5607 6.67684 86.1875 6.67684C84.3763 6.67684 82.9611 7.91519 82.9611 9.54949C82.9611 10.5688 83.2728 11.3186 83.8035 12.161L92.9522 26.8359V36.6501C92.9522 38.9499 94.4096 40.3231 96.0944 40.3231C97.9983 40.3231 99.3209 38.9499 99.3209 36.6501V26.8359L108.47 12.161C109 11.3186 109.312 10.5688 109.312 9.54949C109.312 7.91519 107.897 6.67684 106.086 6.67684C104.712 6.67684 103.963 7.42659 103.255 8.5807L96.1365 20.4251ZM165.586 18.3949C166.335 18.3949 167.262 17.999 167.793 16.8448C168.635 15.0336 169.469 11.5881 169.469 10.0381C169.469 7.91519 168.5 6.59259 166.201 6.59259C163.859 6.67684 162.881 8.18477 162.881 10.9648V13.4836C162.881 16.6258 163.766 18.3865 165.577 18.3865L165.586 18.3949ZM106.481 31.3934C106.481 34.443 109.177 40.1883 116.607 40.1883C124.037 40.1883 127.66 35.8161 127.66 27.9479V10.3414C127.66 8.04156 126.337 6.66841 124.476 6.66841C122.487 6.66841 121.291 8.04156 121.291 10.3414V28.0659C121.291 32.0842 119.918 33.9881 116.784 34.0302C111.435 34.1144 113.735 28.4618 109.935 28.1501C108.259 28.0153 106.49 29.1189 106.49 31.3766L106.481 31.3934ZM69.4318 19.5069C67.351 19.9028 66.0284 20.7452 66.0284 22.7334C66.0284 24.7215 67.3089 25.8756 69.3897 26.1367C72.97 26.5327 74.2083 27.771 74.2083 30.5089C74.2083 33.0277 72.1276 34.4009 68.1513 34.4009H61.6563V12.0262H68.6821C71.3357 12.0262 72.6583 13.6184 72.6583 16.0024C72.6583 18.0832 71.4199 19.1446 69.4318 19.4985V19.5069ZM177.438 31.7051C176.647 30.7785 175.627 29.8518 174.473 29.8518C173.058 29.8518 171.466 30.7363 171.466 32.994C171.466 33.8364 171.862 34.8979 172.662 35.8246C174.827 38.4782 178.407 40.6432 183.445 40.6432C189.409 40.6432 194.405 37.2819 194.405 31.2755C194.405 19.5659 178.845 20.7115 178.845 15.497C178.845 13.4667 180.218 12.3126 182.518 12.3126C184.287 12.3126 185.703 12.7507 186.713 13.5931C187.859 14.4776 188.744 16.2046 190.648 16.2046C192.24 16.2046 193.655 15.1432 193.655 13.551C193.655 11.2512 191.355 9.08616 189.367 7.94047C187.691 6.97168 185.475 6.2135 182.468 6.2135C177.43 6.29775 172.477 9.04403 172.477 15.5812C172.477 26.1452 188.036 24.2918 188.036 30.9217C188.036 33.3057 186.183 34.502 183.394 34.502C180.918 34.502 179.149 33.3984 177.43 31.7136L177.438 31.7051Z" fill="#813488"/>
<path d="M137.29 7.26645C139.143 7.26645 140.474 8.6396 140.474 10.9394V10.3497C140.474 8.0499 139.152 6.67676 137.29 6.67676C135.428 6.67676 134.105 8.0499 134.105 10.3497V10.9394C134.105 8.6396 135.386 7.26645 137.29 7.26645Z" fill="#A054A0"/>
<path d="M140.474 26.2293C140.474 32.5054 142.504 34.4935 146.396 34.4935C150.288 34.4935 152.318 32.5054 152.318 26.2293V25.6396C152.318 31.9157 150.288 33.9038 146.396 33.9038C142.504 33.9038 140.474 31.9157 140.474 25.6396V26.2293Z" fill="#A054A0"/>
<path d="M178.863 15.7329C178.854 15.8424 178.846 15.9519 178.846 16.0699C178.846 21.2339 194.11 20.164 194.397 31.5199C194.397 31.4356 194.397 31.3429 194.397 31.2587C194.397 19.7428 179.368 20.6611 178.854 15.7413L178.863 15.7329Z" fill="#A054A0"/>
<path d="M86.1884 7.26645C87.5615 7.26645 88.3113 8.0162 89.0189 9.17032L96.1374 21.0147L103.256 9.17032C103.963 8.02463 104.713 7.26645 106.086 7.26645C107.805 7.26645 109.161 8.37845 109.296 9.8948C109.296 9.78529 109.313 9.66735 109.313 9.54941C109.313 7.91512 107.898 6.67676 106.086 6.67676C104.713 6.67676 103.963 7.42651 103.256 8.58063L96.1374 20.425L89.0189 8.58063C88.3113 7.43494 87.5615 6.67676 86.1884 6.67676C84.3772 6.67676 82.9619 7.91512 82.9619 9.54941C82.9619 9.66735 82.9619 9.78529 82.9788 9.8948C83.1135 8.38687 84.4698 7.26645 86.1884 7.26645Z" fill="#A054A0"/>
<path d="M174.473 30.433C175.619 30.433 176.638 31.3596 177.439 32.2863C179.166 33.9627 180.935 35.0747 183.403 35.0747C186.191 35.0747 188.045 33.8785 188.045 31.4944C188.045 31.3849 188.045 31.2754 188.028 31.1743C187.893 33.3814 186.073 34.485 183.403 34.485C180.926 34.485 179.157 33.3814 177.439 31.6966C176.647 30.7699 175.627 29.8433 174.473 29.8433C173.058 29.8433 171.466 30.7278 171.466 32.9855C171.466 33.0697 171.466 33.154 171.483 33.2466C171.634 31.2417 173.134 30.4414 174.473 30.4414V30.433Z" fill="#A054A0"/>
<path d="M182.476 6.78623C185.484 6.78623 187.691 7.53598 189.376 8.51319C191.28 9.61676 193.462 11.647 193.647 13.8373C193.655 13.7362 193.664 13.6351 193.664 13.534C193.664 11.2342 191.364 9.06918 189.376 7.92349C187.699 6.95471 185.484 6.19653 182.476 6.19653C177.439 6.28078 172.485 9.02706 172.485 15.5642C172.485 15.6653 172.485 15.7664 172.485 15.8675C172.629 9.54094 177.506 6.87889 182.468 6.78623H182.476Z" fill="#A054A0"/>
<path d="M106.482 31.3849C106.482 31.4944 106.482 31.6124 106.491 31.7303C106.617 29.6411 108.31 28.6218 109.928 28.7482C113.727 29.0599 111.427 34.7125 116.777 34.6282C119.919 34.5861 121.284 32.6823 121.284 28.6639V28.0742C121.284 32.0926 119.911 33.9964 116.777 34.0386C111.427 34.1228 113.727 28.4702 109.928 28.1585C108.252 28.0237 106.482 29.1272 106.482 31.3849Z" fill="#A054A0"/>
<path d="M155.503 6.67676C153.649 6.67676 152.318 8.0499 152.318 10.3497V10.9394C152.318 8.6396 153.641 7.26645 155.503 7.26645C157.364 7.26645 158.687 8.6396 158.687 10.9394V10.3497C158.687 8.0499 157.407 6.67676 155.503 6.67676Z" fill="#A054A0"/>
<path d="M166.202 6.58398C163.86 6.66823 162.883 8.17616 162.883 10.9561V11.5458C162.883 8.75743 163.852 7.25792 166.202 7.17368C168.392 7.17368 169.369 8.37834 169.462 10.3159C169.462 10.2148 169.471 10.1137 169.471 10.0295C169.471 7.90658 168.502 6.58398 166.202 6.58398Z" fill="#A054A0"/>
<path d="M124.468 6.67676C122.479 6.67676 121.283 8.0499 121.283 10.3497V10.9394C121.283 8.6396 122.479 7.26645 124.468 7.26645C126.321 7.26645 127.652 8.6396 127.652 10.9394V10.3497C127.652 8.0499 126.329 6.67676 124.468 6.67676Z" fill="#A054A0"/>
<path d="M58.5062 6.78647H67.3432C74.9587 6.78647 78.8001 10.51 78.9602 15.8088C78.9602 15.7245 78.9602 15.6487 78.9602 15.5645C78.9602 10.0803 75.1103 6.19678 67.3348 6.19678H58.4978C56.594 6.19678 55.3135 7.43513 55.3135 9.339V9.9287C55.3135 8.02483 56.594 6.78647 58.4978 6.78647H58.5062Z" fill="#A054A0"/>
<path d="M69.4239 19.4984C67.3431 19.8944 66.0205 20.7368 66.0205 22.7249C66.0205 22.826 66.0205 22.9271 66.0289 23.0282C66.1553 21.2422 67.4442 20.4672 69.4239 20.0881C71.412 19.7343 72.6503 18.6729 72.6503 16.5921C72.6503 16.491 72.6504 16.3899 72.6419 16.2888C72.5324 18.1758 71.3193 19.1615 69.4239 19.4984Z" fill="#A054A0"/>
<path d="M68.1435 34.9822C72.1197 34.9822 74.2005 33.6091 74.2005 31.0903C74.2005 30.9555 74.2005 30.8375 74.1921 30.7112C74.0741 33.0952 72.0102 34.3841 68.1435 34.3841H61.6484V34.9738H68.1435V34.9822Z" fill="#A054A0"/>
<path d="M74.9501 22.5901C74.9501 22.5901 74.908 22.5733 74.908 22.5311C74.908 22.4806 74.9501 22.4553 74.9501 22.4553C74.8659 22.5143 74.7227 22.6322 74.5963 22.7333C74.4868 22.8176 74.5036 22.9945 74.6384 23.0534L74.9501 23.1882C78.463 24.6203 80.6112 27.5435 80.687 31.2418C80.687 31.1154 80.687 30.989 80.687 30.8627C80.687 29.8855 80.5269 28.9335 80.2405 28.0237C79.4318 25.5807 77.57 23.6684 74.9417 22.5985L74.9501 22.5901Z" fill="#A054A0"/>
<defs>
<linearGradient id="paint0_linear_43_4614" x1="265.387" y1="52.6307" x2="229.77" y2="-9.05967" gradientUnits="userSpaceOnUse">
<stop stop-color="#18AEE4"/>
<stop offset="0.22" stop-color="#0B7FC2"/>
<stop offset="0.44" stop-color="#8C60A7"/>
<stop offset="0.75" stop-color="#EE4C80"/>
<stop offset="1" stop-color="#FAAC18"/>
</linearGradient>
<linearGradient id="paint1_linear_43_4614" x1="265.387" y1="52.6307" x2="229.77" y2="-9.05968" gradientUnits="userSpaceOnUse">
<stop stop-color="#18AEE4"/>
<stop offset="0.22" stop-color="#0B7FC2"/>
<stop offset="0.44" stop-color="#8C60A7"/>
<stop offset="0.75" stop-color="#EE4C80"/>
<stop offset="1" stop-color="#FAAC18"/>
</linearGradient>
<linearGradient id="paint2_linear_43_4614" x1="265.388" y1="52.6307" x2="229.77" y2="-9.05972" gradientUnits="userSpaceOnUse">
<stop stop-color="#18AEE4"/>
<stop offset="0.22" stop-color="#0B7FC2"/>
<stop offset="0.44" stop-color="#8C60A7"/>
<stop offset="0.75" stop-color="#EE4C80"/>
<stop offset="1" stop-color="#FAAC18"/>
</linearGradient>
<radialGradient id="paint3_radial_43_4614" cx="0" cy="0" r="1" gradientUnits="userSpaceOnUse" gradientTransform="translate(23.1938 -15.0998) rotate(90) scale(28.4232 36.3817)">
<stop offset="0.82" stop-color="#A054A0"/>
<stop offset="0.89" stop-color="#813488"/>
</radialGradient>
<radialGradient id="paint4_radial_43_4614" cx="0" cy="0" r="1" gradientUnits="userSpaceOnUse" gradientTransform="translate(46.851 61.9143) rotate(-90) scale(28.4232 36.3817)">
<stop offset="0.82" stop-color="#5F286F"/>
<stop offset="0.89" stop-color="#813488"/>
</radialGradient>
<linearGradient id="paint5_linear_43_4614" x1="28.7176" y1="35.4959" x2="15.0872" y2="11.8745" gradientUnits="userSpaceOnUse">
<stop stop-color="#18AEE4"/>
<stop offset="0.22" stop-color="#0B7FC2"/>
<stop offset="0.44" stop-color="#8C60A7"/>
<stop offset="0.75" stop-color="#EE4C80"/>
<stop offset="1" stop-color="#FAAC18"/>
</linearGradient>
<linearGradient id="paint6_linear_43_4614" x1="24.5736" y1="20.8628" x2="14.0943" y2="20.7622" gradientUnits="userSpaceOnUse">
<stop stop-color="white"/>
<stop offset="1" stop-color="white" stop-opacity="0"/>
</linearGradient>
<linearGradient id="paint7_linear_43_4614" x1="22.7614" y1="22.7071" x2="17.3701" y2="22.6553" gradientUnits="userSpaceOnUse">
<stop stop-color="white"/>
<stop offset="1" stop-color="white" stop-opacity="0"/>
</linearGradient>
</defs>
</svg>
